#!OML:ASF Y:\EmotionMaleHayes\Project 1\Capture day 1\Session 1\Male1.ASF
:FULLY-SPECIFIED
:DEGREES
1781
root -30.8566 17.0596 1.04012 726.55 85.7632 8.78398
lowerback 4.16287 2.15284 -3.18229
upperback 1.03051 2.75018 0.283704
thorax -1.4357 1.38938 1.92351
lowerneck -21.5071 1.62136 3.65794
upperneck 25.5448 1.59124 -1.10946
head 12.0184 1.02 -0.749096
rclavicle 1.09797e-015 4.47266e-015
rhumerus -35.4256 4.91426 -89.4776
rradius 29.138
rwrist 8.54944
rhand -8.96064 -30.3951
rfingers 7.12502
rthumb 16.9843 -59.6725
lclavicle 1.09797e-015 4.47266e-015
lhumerus -35.9449 1.44954 82.6391
lradius 20.9783
lwrist -17.1865
lhand -12.6184 -24.7311
lfingers 7.12502
lthumb 13.461 4.81394
rfemur 5.40942 -1.53811 16.6533
rtibia 7.176
rfoot -15.9488 -3.98726
rtoes 16.3637
lfemur 11.2713 3.001 -16.961
ltibia 0.166432
lfoot -13.7105 17.2615
ltoes -5.49684
1782
root -30.8627 17.0585 1.04301 725.729 85.8549 7.90887
lowerback 4.16888 2.1366 -3.13706
upperback 1.01015 2.72992 0.300034
thorax -1.45756 1.37957 1.91549
lowerneck -21.532 1.59608 3.60555
upperneck 25.5264 1.55122 -1.04207
head 12.014 1.00537 -0.721522
rclavicle -4.57515e-015 7.95139e-016
rhumerus -35.4326 4.866 -89.546
rradius 29.1204
rwrist 8.66496
rhand -8.88934 -30.4898
rfingers 7.12502
rthumb 17.053 -59.7613
lclavicle -4.57515e-015 7.95139e-016
lhumerus -35.9073 0.945011 83.0238
lradius 21.266
lwrist -16.6717
lhand -12.1454 -24.8889
lfingers 7.12502
lthumb 13.9169 4.62534
rfemur 5.37282 -1.55914 16.7458
rtibia 7.08987
rfoot -15.9 -3.94208
rtoes 16.7849
lfemur 11.1936 2.77746 -16.9263
ltibia 0.110551
lfoot -13.6155 17.4918
ltoes -5.61394
1783
root -30.8652 17.0574 1.04502 726.795 85.8546 8.9843
lowerback 4.15001 2.13367 -3.25068
upperback 1.03247 2.72251 0.302749
thorax -1.42896 1.37568 1.98345
lowerneck -21.5294 1.5922 3.5421
upperneck 25.5102 1.56243 -1.02454
head 12.0066 1.00607 -0.702485
rclavicle -2.90847e-014 1.49089e-015
rhumerus -35.473 4.96033 -89.5955
rradius 29.1822
rwrist 8.51856
rhand -8.84225 -30.5675
rfingers 7.12502
rthumb 17.0983 -59.8351
lclavicle -2.90847e-014 1.49089e-015
lhumerus -35.9477 0.382961 83.5747
lradius 21.6114
lwrist -16.5338
lhand -13.111 -24.5931
lfingers 7.12502
lthumb 12.9862 4.98269
rfemur 5.41537 -1.56446 16.647
rtibia 7.00709
rfoot -15.8772 -3.99667
rtoes 16.7774
lfemur 11.1924 2.82159 -16.9876
ltibia 0.0965382
lfoot -13.6305 17.4706
ltoes -5.85996
1784
root -30.8682 17.0576 1.04718 727.195 85.8626 9.41474
lowerback 4.1577 2.1308 -3.33161
upperback 1.05757 2.71595 0.31948
thorax -1.41155 1.37224 2.04653
lowerneck -21.4843 1.60498 3.53569
upperneck 25.4718 1.59445 -1.05921
head 11.9837 1.0147 -0.709392
rclavicle 1.94374e-014 -4.87022e-015
rhumerus -35.5561 5.18836 -89.6898
rradius 29.3109
rwrist 8.27173
rhand -8.93891 -30.73
rfingers 7.12502
rthumb 17.0052 -60.0057
lclavicle 1.94374e-014 -4.87022e-015
lhumerus -35.8797 0.212217 83.8671
lradius 22.0302
lwrist -15.8918
lhand -14.4185 -24.2984
lfingers 7.12502
lthumb 11.7255 5.35347
rfemur 5.46083 -1.47573 16.6405
rtibia 6.95874
rfoot -15.8879 -4.09976
rtoes 16.9685
lfemur 11.2362 2.88261 -16.9771
ltibia 0.048598
lfoot -13.6365 17.3649
ltoes -5.73283
1785
root -30.8725 17.0578 1.05004 726.29 85.8654 8.52369
lowerback 4.1971 2.15094 -3.30481
upperback 1.053 2.74275 0.344252
thorax -1.43988 1.38605 2.05376
lowerneck -21.488 1.5986 3.54924
upperneck 25.5047 1.58671 -1.07498
head 11.9973 1.01122 -0.718784
rclavicle 9.72337e-015 4.24902e-015
rhumerus -35.6652 5.31521 -89.7639
rradius 29.4239
rwrist 8.18586
rhand -9.03216 -30.9881
rfingers 7.12502
rthumb 16.9155 -60.2714
lclavicle 9.72337e-015 4.24902e-015
lhumerus -35.7459 -0.107825 84.1789
lradius 22.2535
lwrist -15.3452
lhand -12.7743 -24.5145
lfingers 7.12502
lthumb 13.3108 5.04043
rfemur 5.45535 -1.26361 16.7992
rtibia 6.957
rfoot -15.9073 -4.3091
rtoes 17.14
lfemur 11.2497 2.91327 -16.8617
ltibia 0.0244754
lfoot -13.5895 17.3116
ltoes -5.84037
1786
root -30.8759 17.061 1.04576 735.015 85.804 17.0806
lowerback 4.04011 2.1557 -3.88156
upperback 0.988371 2.72686 0.150627
thorax -1.43466 1.38042 2.18257
lowerneck -21.5165 1.60418 3.51042
upperneck 25.5634 1.58945 -1.00706
head 12.025 1.01886 -0.686024
rclavicle 2.12762e-015 1.16041e-014
rhumerus -35.7438 5.36652 -89.8081
rradius 29.4551
rwrist 8.15461
rhand -8.92477 -31.1021
rfingers 7.12502
rthumb 17.0189 -60.3766
lclavicle 2.12762e-015 1.16041e-014
lhumerus -35.5474 -0.434769 84.4833
lradius 22.315
lwrist -14.877
lhand -12.057 -24.8497
lfingers 7.12502
lthumb 14.0021 4.65872
rfemur 5.22406 -1.56047 15.9333
rtibia 7.03651
rfoot -15.9192 -4.12035
rtoes 17.2733
lfemur 10.9799 2.96678 -17.7022
ltibia 0.0830185
lfoot -13.5598 17.2478
ltoes -6.07226
1787
root -30.8847 17.0733 1.02851 762.589 84.9749 44.159
lowerback 3.56653 2.06314 -6.05631
upperback 0.839809 2.5385 -0.509975
thorax -1.37222 1.29651 2.74178
lowerneck -21.4969 1.62416 3.4497
upperneck 25.5088 1.61101 -0.914986
head 11.999 1.03396 -0.637849
rclavicle 8.42195e-015 -4.91992e-015
rhumerus -35.8194 5.55702 -89.8968
rradius 29.5689
rwrist 8.02183
rhand -8.75983 -31.1005
rfingers 7.12502
rthumb 17.1776 -60.3612
lclavicle 8.42195e-015 -4.91992e-015
lhumerus -35.4124 -1.07678 85.0015
lradius 22.3223
lwrist -14.9234
lhand -13.3127 -24.9934
lfingers 7.12502
lthumb 12.7918 4.59469
rfemur 4.58982 -3.15143 12.6199
rtibia 7.29982
rfoot -15.7897 -2.9202
rtoes 17.2866
lfemur 10.062 3.22538 -20.736
ltibia 0.426164
lfoot -13.3768 16.9342
ltoes -6.70553
1788
root -30.8989 17.0709 1.03299 764.371 85.082 45.9853
lowerback 3.72764 2.01652 -6.2221
upperback 0.866907 2.46038 -0.456614
thorax -1.4363 1.25957 2.88856
lowerneck -21.5071 1.64649 3.426
upperneck 25.4297 1.65494 -0.942217
head 11.9712 1.04557 -0.637038
rclavicle 9.32269e-015 -9.56651e-015
rhumerus -35.8132 5.76189 -89.9191
rradius 29.6671
rwrist 7.80655
rhand -8.71253 -30.9206
rfingers 7.12502
rthumb 17.2231 -60.1774
lclavicle 9.32269e-015 -9.56651e-015
lhumerus -35.2001 -1.53972 85.4881
lradius 22.7111
lwrist -13.8297
lhand -13.8557 -24.8419
lfingers 7.12502
lthumb 12.2683 4.77827
rfemur 4.64096 -3.32709 12.5634
rtibia 7.27426
rfoot -15.7763 -2.87174
rtoes 17.6013
lfemur 9.92544 3.38668 -20.6946
ltibia 0.656901
lfoot -13.2678 16.6476
ltoes -6.9093
1789
root -30.9013 17.07 1.02965 765.122 85.0694 46.7257
lowerback 3.69027 2.00493 -6.18397
upperback 0.902112 2.45074 -0.512044
thorax -1.37403 1.25243 2.81278
lowerneck -21.5532 1.66946 3.45827
upperneck 25.4459 1.67774 -0.954398
head 11.9878 1.05708 -0.64301
rclavicle 1.22944e-014 1.49089e-015
rhumerus -35.7385 5.7148 -89.9668
rradius 29.587
rwrist 7.70997
rhand -8.80831 -30.6734
rfingers 7.12502
rthumb 17.1309 -59.9382
lclavicle 1.22944e-014 1.49089e-015
lhumerus -34.9965 -2.06676 85.8595
lradius 22.8476
lwrist -13.3371
lhand -13.7556 -25.1979
lfingers 7.12502
lthumb 12.3648 4.41646
rfemur 4.63302 -3.43316 12.4566
rtibia 7.272
rfoot -15.7687 -2.76907
rtoes 17.3067
lfemur 9.87989 3.31883 -20.8086
ltibia 0.69116
lfoot -13.3023 16.6411
ltoes -6.76833
1790
root -30.9049 17.0718 1.02824 765.05 85.0919 46.6748
lowerback 3.72797 2.01557 -6.17109
upperback 0.906576 2.46291 -0.486193
thorax -1.3923 1.25882 2.83031
lowerneck -21.519 1.67546 3.41483
upperneck 25.4559 1.70942 -0.970353
head 11.9853 1.06545 -0.636594
rclavicle 2.08817e-014 -9.49197e-015
rhumerus -35.7543 5.74915 -89.9522
rradius 29.5036
rwrist 7.73748
rhand -8.98675 -30.5237
rfingers 7.12502
rthumb 16.9592 -59.8033
lclavicle 2.08817e-014 -9.49197e-015
lhumerus -34.8683 -2.65049 86.3637
lradius 23.0248
lwrist -12.9026
lhand -14.4033 -25.2673
lfingers 7.12502
lthumb 11.7402 4.38365
rfemur 4.64715 -3.43342 12.4808
rtibia 7.27078
rfoot -15.7668 -2.82986
rtoes 16.5677
lfemur 9.88105 3.27953 -20.8066
ltibia 0.703228
lfoot -13.3244 16.6352
ltoes -6.70386
1791
root -30.9089 17.0715 1.02667 765.128 85.0749 46.7204
lowerback 3.66793 2.02953 -6.13874
upperback 0.933415 2.48832 -0.521813
thorax -1.33042 1.2693 2.77683
lowerneck -21.5131 1.69169 3.4819
upperneck 25.4019 1.72502 -1.03214
head 11.9648 1.0696 -0.668626
rclavicle 2.33067e-014 -1.03368e-014
rhumerus -35.7035 5.72798 -89.9935
rradius 29.4511
rwrist 7.87069
rhand -9.0962 -30.3542
rfingers 7.12502
rthumb 16.8538 -59.6428
lclavicle 2.33067e-014 -1.03368e-014
lhumerus -34.5664 -2.50553 86.4356
lradius 23.0811
lwrist -13.0898
lhand -14.3919 -25.3886
lfingers 7.12502
lthumb 11.7512 4.26178
rfemur 4.55898 -3.50937 12.4459
rtibia 7.35431
rfoot -15.6744 -2.88797
rtoes 16.1603
lfemur 9.79663 3.27701 -20.8487
ltibia 0.78141
lfoot -13.3717 16.6705
ltoes -6.4848
1792
root -30.9112 17.0678 1.02631 765.633 85.0541 47.2444
lowerback 3.6826 2.03589 -6.15594
upperback 0.930777 2.49497 -0.552398
thorax -1.34132 1.27316 2.75391
lowerneck -21.4177 1.70601 3.5884
upperneck 25.3638 1.7531 -1.16969
head 11.9344 1.07453 -0.733938
rclavicle 9.41432e-015 3.57812e-015
rhumerus -35.7051 5.59595 -89.9732
rradius 29.3909
rwrist 7.99982
rhand -9.06751 -30.3223
rfingers 7.12502
rthumb 16.8814 -59.6086
lclavicle 9.41432e-015 3.57812e-015
lhumerus -34.0374 -0.789195 85.8464
lradius 22.6031
lwrist -14.5574
lhand -12.8967 -26.1468
lfingers 7.12502
lthumb 13.1928 3.41582
rfemur 4.57305 -3.56384 12.3817
rtibia 7.38231
rfoot -15.6411 -2.98734
rtoes 16.0461
lfemur 9.78178 3.33816 -20.8979
ltibia 0.85124
lfoot -13.3815 16.6519
ltoes -6.46452
1793
root -30.9118 17.0677 1.02664 764.722 85.0395 46.5
lowerback 3.82008 2.0774 -6.10159
upperback 0.979854 2.54477 -0.552162
thorax -1.36993 1.29791 2.71705
lowerneck -21.4158 1.74089 3.66305
upperneck 25.4105 1.80287 -1.24966
head 11.9552 1.09448 -0.76816
rclavicle 1.34319e-014 9.31803e-015
rhumerus -35.6679 5.37394 -89.9101
rradius 29.2986
rwrist 8.16797
rhand -8.91436 -30.2688
rfingers 7.12502
rthumb 17.0289 -59.5424
lclavicle 1.34319e-014 9.31803e-015
lhumerus -34.0645 -1.89807 86.5342
lradius 23.0053
lwrist -13.808
lhand -14.7164 -25.6177
lfingers 7.12502
lthumb 11.4383 4.05025
rfemur 4.74148 -3.58216 12.3849
rtibia 7.37378
rfoot -15.7169 -2.86649
rtoes 16.3057
lfemur 9.99631 3.41794 -20.8236
ltibia 0.789828
lfoot -13.2904 16.6816
ltoes -6.79088
1794
root -30.9166 17.0645 1.02894 763.88 84.971 45.6349
lowerback 3.768 2.12579 -6.13032
upperback 1.02756 2.61435 -0.55953
thorax -1.2988 1.33002 2.72445
lowerneck -21.7246 1.81175 3.52958
upperneck 25.6991 1.83961 -0.894187
head 12.1254 1.14828 -0.603651
rclavicle 1.51263e-015 1.44119e-015
rhumerus -35.5377 5.26389 -89.8888
rradius 29.2353
rwrist 8.27668
rhand -8.75315 -30.0528
rfingers 7.12502
rthumb 17.184 -59.313
lclavicle 1.51263e-015 1.44119e-015
lhumerus -33.9774 -2.67512 87.0263
lradius 23.5021
lwrist -13.1502
lhand -12.6671 -25.575
lfingers 7.12502
lthumb 13.4141 3.97315
rfemur 4.67339 -3.5303 12.3997
rtibia 7.3631
rfoot -15.7844 -2.76304
rtoes 16.0957
lfemur 9.93301 3.55593 -20.7719
ltibia 0.847322
lfoot -13.2099 16.6669
ltoes -6.95583
1795
root -30.9221 17.0653 1.03088 763.262 84.9127 45.0407
lowerback 3.78801 2.15088 -6.1801
upperback 1.0769 2.64707 -0.544807
thorax -1.2649 1.34475 2.76586
lowerneck -22.1354 1.90774 3.24924
upperneck 26.1657 1.8941 -0.298566
head 12.3835 1.2316 -0.316711
rclavicle 4.34841e-016 5.66536e-015
rhumerus -35.4548 5.37222 -89.8988
rradius 29.2308
rwrist 8.18697
rhand -8.64471 -29.8545
rfingers 7.12502
rthumb 17.2884 -59.1055
lclavicle 4.34841e-016 5.66536e-015
lhumerus -33.9582 -3.3656 87.5339
lradius 23.9849
lwrist -12.6514
lhand -12.348 -25.6426
lfingers 7.12502
lthumb 13.7217 3.88502
rfemur 4.72318 -3.20204 12.4908
rtibia 7.22503
rfoot -15.7273 -3.00504
rtoes 15.6199
lfemur 9.90854 3.53639 -20.7758
ltibia 0.933712
lfoot -13.2474 16.758
ltoes -7.20438
